# xmcd CD database file
#
# Track frame offsets:
#	150
#	14959
#	29787
#	53459
#	65763
#	80951
#	108516
#	135182
#	162798
#	172677
#	195222
#
# Disc length: 2890 seconds
#
# Revision: 1
# Processed by: cddbd v1.5.1PL2 Copyright (c) Steve Scherf et al.
# Submitted via: CDex 1.51
#
DISCID=8d0b480b
DTITLE=Jacques Higelin - Higelin Enchante Trenet
DYEAR=2005
DGENRE=
TTITLE0=Un rien me fait chanter
TTITLE1=Il pleut dans ma chambre
TTITLE2=Coin de rue
TTITLE3=Introdution Vous êtes jolie
TTITLE4=Vous êtes jolie
TTITLE5=Sur le fil
TTITLE6=L'héritage infernal
TTITLE7=Débit de l'eau... débit de lait
TTITLE8=Le bohneur ne passe qu'une fois
TTITLE9=Je Chante
TTITLE10=Pauvre Georges André
EXTD=YEAR: 2005
EXTT0=
EXTT1=
EXTT2=
EXTT3=
EXTT4=
EXTT5=
EXTT6=
EXTT7=
EXTT8=
EXTT9=
EXTT10=
PLAYORDER=
